<mxfile host="app.diagrams.net" modified="2021-10-19T01:42:44.991Z" agent="5.0 (Windows NT 10.0; Win64; x64) AppleWebKit/537.36 (KHTML, like Gecko) Chrome/91.0.4472.77 Safari/537.36" etag="Fajy8rbpBZUEd5JD1mWS" version="15.5.4" type="github">
  <diagram name="Page-1" id="74e2e168-ea6b-b213-b513-2b3c1d86103e">
    <mxGraphModel dx="813" dy="457" grid="1" gridSize="10" guides="1" tooltips="1" connect="1" arrows="1" fold="1" page="1" pageScale="1" pageWidth="1100" pageHeight="850" background="none" math="0" shadow="0">
      <root>
        <mxCell id="0" />
        <mxCell id="1" parent="0" />
        <mxCell id="pxwzik7FVnxecyrCKVpQ-1" value="仪表数据库" style="rounded=0;whiteSpace=wrap;html=1;" vertex="1" parent="1">
          <mxGeometry x="30" y="110" width="140" height="60" as="geometry" />
        </mxCell>
        <mxCell id="pxwzik7FVnxecyrCKVpQ-2" value="种类" style="swimlane;fontStyle=0;childLayout=stackLayout;horizontal=1;startSize=30;horizontalStack=0;resizeParent=1;resizeParentMax=0;resizeLast=0;collapsible=1;marginBottom=0;" vertex="1" collapsed="1" parent="1">
          <mxGeometry x="30" y="170" width="60" height="30" as="geometry">
            <mxRectangle x="30" y="170" width="140" height="90" as="alternateBounds" />
          </mxGeometry>
        </mxCell>
        <mxCell id="pxwzik7FVnxecyrCKVpQ-3" value="圆形（均匀刻度）" style="text;strokeColor=none;fillColor=none;align=center;verticalAlign=middle;spacingLeft=4;spacingRight=4;overflow=hidden;points=[[0,0.5],[1,0.5]];portConstraint=eastwest;rotatable=0;" vertex="1" parent="pxwzik7FVnxecyrCKVpQ-2">
          <mxGeometry y="30" width="60" height="30" as="geometry" />
        </mxCell>
        <mxCell id="pxwzik7FVnxecyrCKVpQ-4" value="矩形（均匀刻度）" style="text;strokeColor=none;fillColor=none;align=center;verticalAlign=middle;spacingLeft=4;spacingRight=4;overflow=hidden;points=[[0,0.5],[1,0.5]];portConstraint=eastwest;rotatable=0;" vertex="1" parent="pxwzik7FVnxecyrCKVpQ-2">
          <mxGeometry y="60" width="60" height="30" as="geometry" />
        </mxCell>
        <mxCell id="pxwzik7FVnxecyrCKVpQ-7" value="刻度文本&lt;br&gt;目标检测分类" style="rounded=0;whiteSpace=wrap;html=1;" vertex="1" parent="1">
          <mxGeometry x="200" y="70" width="140" height="60" as="geometry" />
        </mxCell>
        <mxCell id="pxwzik7FVnxecyrCKVpQ-8" value="基于刻度线的" style="rounded=0;whiteSpace=wrap;html=1;" vertex="1" parent="1">
          <mxGeometry x="200" y="150" width="140" height="60" as="geometry" />
        </mxCell>
        <mxCell id="pxwzik7FVnxecyrCKVpQ-9" value="文本" style="swimlane;fontStyle=0;childLayout=stackLayout;horizontal=1;startSize=30;horizontalStack=0;resizeParent=1;resizeParentMax=0;resizeLast=0;collapsible=1;marginBottom=0;align=center;" vertex="1" collapsed="1" parent="1">
          <mxGeometry x="90" y="170" width="60" height="30" as="geometry">
            <mxRectangle x="90" y="170" width="140" height="60" as="alternateBounds" />
          </mxGeometry>
        </mxCell>
        <mxCell id="pxwzik7FVnxecyrCKVpQ-10" value="刻度线数字" style="text;strokeColor=none;fillColor=none;align=left;verticalAlign=middle;spacingLeft=4;spacingRight=4;overflow=hidden;points=[[0,0.5],[1,0.5]];portConstraint=eastwest;rotatable=0;" vertex="1" parent="pxwzik7FVnxecyrCKVpQ-9">
          <mxGeometry y="30" width="60" height="30" as="geometry" />
        </mxCell>
      </root>
    </mxGraphModel>
  </diagram>
</mxfile>
